<?xml version="1.0" standalone="no"?><!DOCTYPE svg PUBLIC "-//W3C//DTD SVG 1.1//EN"
        "http://www.w3.org/Graphics/SVG/1.1/DTD/svg11.dtd">
<svg viewBox="0 0 4096 1024"
     xmlns="http://www.w3.org/2000/svg"
      width="100%" height="100%">

    <path d="M1234.16069807 690.46341551c62.96962316 23.02318413 194.30703694 45.91141406 300.51598128 45.91141406 114.44114969 0 178.13952547-31.68724287 183.2407937-80.86454822 4.642424-44.8587714-42.21366937-50.93170978-171.44579784-81.53931916-178.57137886-43.77913792-292.49970264-111.55313011-281.32549604-219.86735976 12.9825927-125.75031047 181.27046257-220.78504823 439.49180199-220.78504822 125.88526465 0 247.93783044 8.87998544 311.17736197 29.60894839l-21.7006331 158.57116851c-41.05306337-14.27815288-198.1937175-34.11641822-304.48363435-34.11641822-107.7744129 0-163.56447339 33.90049151-167.42416309 71.06687432-4.85835069 47.04502922 51.14763648 49.23128703 191.14910897 86.50563321 189.58364043 48.09767188 272.47250144 115.81768239 261.6221849 220.81203906-12.71268432 123.51007099-164.13128096 228.53141851-466.48263918 228.53141851-125.85827383 0-234.33444849-22.96920244-294.09216204-45.93840492l19.730302-157.86940672zM3010.8325562 172.75216735c688.40130256-129.79893606 747.80813523 103.42888812 726.53935551 309.80082928l-40.08139323 381.78539207h-218.51781789l36.57258439-348.20879061c7.90831529-76.68096846 57.13960232-226.66905073-180.54170997-221.05495659-82.26807176 1.99732195-123.05122675 13.2794919-123.05122677 13.27949188s-7.15257186 92.65954408-15.81663059 161.13529804l-41.43093509 394.84895728h-214.3072473l42.53755943-389.15389062 28.09746151-302.43233073z m-869.48282929-18.05687008c49.12332368-5.34418577 124.58970448-10.76934404 228.45044598-10.76934405 173.38913812 0 313.57954648 30.17575597 400.38207891 93.63121421 77.94953781 59.16391512 129.82592689 154.95439631 115.4668015 293.74128117-13.25250106 129.15115596-80.405704 219.57046055-178.16651631 275.4954752-89.44763445 52.74009587-202.16137055 75.27744492-371.66382812 75.27744493-99.94707012 0-195.27870708-5.39816743-267.77609576-16.14052064L2141.37671774 154.69529727z m143.26736381 569.85754561c16.70732823 3.23890047 38.67786969 6.45081009 81.99816339 6.45081009 173.44311979 0 295.7386031-85.23706385 308.01943403-205.07638097 17.84094339-173.2271931-90.63523129-233.79463176-273.39018992-232.74198912-23.67096422 0-56.57279475 0-73.98188473 3.1849188l-42.6725136 428.15565036z"/>
    <path d="M1109.8678928 870.30336371c-41.10704503 14.25116203-126.26313639 23.96786342-245.23874671 23.96786342-342.13585224 0-526.8071603-160.59548129-504.97157302-372.90540663C385.78470347 268.40769434 659.36382925 126.08500985 958.9081404 126.08500985c116.00661824 0 184.32042718 9.33882968 248.31570215 24.99351522l-20.5400271 170.42014604c-42.56455024-14.33213455-142.32268451-27.50366309-223.07926938-27.50366311-176.25016686 0-325.94134993 52.49717834-343.10752238 218.57179958-15.30380469 148.50358623 89.7715245 219.48948804 288.04621451 219.48948804 69.0155707 0 170.77102691-9.8786464 217.81605614-24.15679928l-16.49140154 162.40386737z" fill="#CA0C16"/>
</svg>