<?xml version="1.0" standalone="no"?><!DOCTYPE svg PUBLIC "-//W3C//DTD SVG 1.1//EN" "http://www.w3.org/Graphics/SVG/1.1/DTD/svg11.dtd"><svg t="1537155944325" class="icon" style="" viewBox="0 0 1024 1024" version="1.1" xmlns="http://www.w3.org/2000/svg" p-id="5464" xmlns:xlink="http://www.w3.org/1999/xlink" width="128" height="128"><defs><style type="text/css"></style></defs><path d="M923.477333 95.488a43.776 43.776 0 0 0-34.688-9.6l-512 85.333333c-20.522667 3.456-35.712 21.333333-35.712 42.112v469.333334H213.333333a128.042667 128.042667 0 0 0 0 256h85.333334c70.656 0 128-57.344 128-128V249.6l426.666666-71.210667V597.333333h-128a128.042667 128.042667 0 0 0 0 256h85.333334c70.656 0 128-57.344 128-128V128a42.368 42.368 0 0 0-15.189334-32.512zM341.333333 810.666667c0 23.466667-19.2 42.666667-42.666666 42.666666H213.333333c-23.466667 0-42.666667-19.2-42.666666-42.666666s19.2-42.666667 42.666666-42.666667h128v42.666667z m512-85.333334c0 23.466667-19.2 42.666667-42.666666 42.666667h-85.333334c-23.466667 0-42.666667-19.2-42.666666-42.666667s19.2-42.666667 42.666666-42.666666h128v42.666666z" p-id="5465" fill="#1296db"></path></svg>