<?xml version="1.0" standalone="no"?><!DOCTYPE svg PUBLIC "-//W3C//DTD SVG 1.1//EN" "http://www.w3.org/Graphics/SVG/1.1/DTD/svg11.dtd"><svg t="1537155737135" class="icon" style="" viewBox="0 0 1163 1024" version="1.1" xmlns="http://www.w3.org/2000/svg" p-id="2410" xmlns:xlink="http://www.w3.org/1999/xlink" width="145.375" height="128"><defs><style type="text/css"></style></defs><path d="M456.399955 1023.9999a29.829997 29.829997 0 0 1-12.882998-3.018 30.875997 30.875997 0 0 1-18.455999-27.857997l-3.481999-199.413981H100.28699A100.17099 100.17099 0 0 1 0 693.539932V100.28699A100.40399 100.40399 0 0 1 100.28699 0.117h963.409906a100.28699 100.28699 0 0 1 100.17099 100.16999V693.539932a100.17099 100.17099 0 0 1-100.17099 100.17099H739.039928L476.479953 1016.339901a29.946997 29.946997 0 0 1-20.079998 7.659999z m606.832941-961.203906H99.82299A37.723996 37.723996 0 0 0 62.099994 100.40399v593.249942a37.723996 37.723996 0 0 0 37.723996 37.608997h352.862966a31.455997 31.455997 0 0 1 31.223997 30.874997l2.901999 164.127984 221.235979-187.574982a31.687997 31.687997 0 0 1 20.312998-7.427999h334.871967a37.491996 37.491996 0 0 0 37.490997-37.607997V100.28699a37.607996 37.607996 0 0 0-37.490997-37.606996zM769.449925 242.709976v62.562994H393.836962V242.709976z m0 172.135983v63.027994H393.836962v-63.027994z" p-id="2411" fill="#1296db"></path></svg>