<?xml version="1.0" standalone="no"?><!DOCTYPE svg PUBLIC "-//W3C//DTD SVG 1.1//EN" "http://www.w3.org/Graphics/SVG/1.1/DTD/svg11.dtd"><svg t="1537155869622" class="icon" style="" viewBox="0 0 1024 1024" version="1.1" xmlns="http://www.w3.org/2000/svg" p-id="4722" xmlns:xlink="http://www.w3.org/1999/xlink" width="128" height="128"><defs><style type="text/css"></style></defs><path d="M517.952 69.696A73.6 73.6 0 0 0 487.552 64a77.44 77.44 0 0 0-33.088 6.528L148.032 226.112l302.144 148.736c6.848 3.328 17.984 5.696 30.4 5.696 13.312 0 25.472-2.624 33.088-6.528l306.496-155.584-302.208-148.736z m-96 362.56L101.12 274.368c-21.952-10.816-34.624-28.16-34.752-47.552-0.128-19.648 12.608-37.44 34.944-48.768L425.472 13.44c17.088-8.64 39.104-13.44 62.08-13.44 21.76 0 42.56 4.352 58.624 12.288l320.832 157.888c21.952 10.816 34.624 28.16 34.752 47.552 0.128 19.648-12.608 37.44-34.944 48.768L542.72 431.104c-17.088 8.64-39.104 13.44-62.08 13.44a135.68 135.68 0 0 1-58.688-12.288z m-22.4 137.28c0-5.312-10.752-20.48-25.92-27.904L96 395.904v384c0 5.376 10.752 20.48 25.856 27.968L399.552 953.6v-384z m-20.096 445.824L92.16 864.576C57.92 847.616 32 811.328 32 779.968V374.528c0-28.416 20.864-49.024 49.6-49.024 11.072 0 22.656 2.944 34.432 8.704l287.36 150.72c34.304 16.96 60.16 53.248 60.16 84.608v405.44c0 28.416-20.864 49.024-49.6 49.024-11.072 0-22.656-2.944-34.496-8.64z m482.112-208.192c13.696-6.784 24.512-21.888 24.512-27.2v-384l-279.04 146.368c-13.76 6.784-24.512 21.888-24.512 27.2v384l279.04-146.368z m-343.04 167.808V569.536c0-31.36 25.792-67.648 60.16-84.608l287.36-150.72a78.72 78.72 0 0 1 34.432-8.704c28.736 0 49.6 20.608 49.6 49.024v405.44c0 31.36-25.856 67.648-60.16 84.608l-287.36 150.72a78.72 78.72 0 0 1-34.432 8.704c-28.8 0-49.6-20.608-49.6-49.024z" fill="#1296db" p-id="4723"></path></svg>