<?xml version="1.0" standalone="no"?><!DOCTYPE svg PUBLIC "-//W3C//DTD SVG 1.1//EN" "http://www.w3.org/Graphics/SVG/1.1/DTD/svg11.dtd"><svg t="1537156005271" class="icon" style="" viewBox="0 0 1024 1024" version="1.1" xmlns="http://www.w3.org/2000/svg" p-id="6748" xmlns:xlink="http://www.w3.org/1999/xlink" width="128" height="128"><defs><style type="text/css"></style></defs><path d="M768.856 942.574c-8.425 0-15.242-0.718-20.229-1.441l0 0-630.46 0c-30.928 0-56-25.072-56-56L62.167 464.075l0 0c0-30.609 24.814-55.423 55.423-55.423l176.482 0c1.166 0.22 9.31-1.333 21.228-10.698l0 0c11.583-9.145 25.332-24.501 37.135-42.679l0 0c24.557-35.476 40.518-84.529 39.467-103.429l0 0c0.442-33.42 1.442-69.282 19.51-105.866l0 0c16.793-38.021 64.46-67.896 112.958-65.622l0 0c22.782 0.167 46.393 4.376 72.444 12.136l0 0c37.302 10.476 66.512 38.411 80.536 68.287l0 0c14.52 30.042 18.125 60.913 18.344 90.346l0 0c-0.333 40.019-7.535 79.704-15.742 112.24l0 0 156.525 0c35.976-0.442 71.503 11.308 94.063 36.97l0 0c22.335 25.441 26.993 54.87 26.993 76.878l0 0c-0.333 30.705-8.04 54.595-12.308 66.123l0 0-47.278 301.576-2.16 5.821c-24.666 68.396-87.463 92.008-121.554 92.008l0 0C772.405 942.799 770.574 942.742 768.856 942.574L768.856 942.574 768.856 942.574zM768.856 831.721c7.759-2.604 11.199 3.492 21.841-17.128l0 0 47.111-301.134 2.717-6.259c-0.224-0.114 1.275-2.717 3.102-9.259l0 0c1.832-6.374 3.439-15.133 3.326-20.784l0 0c0.057-0.833 0.057-1.551 0.057-2.16l0 0c-2.217-0.39-18.6-0.832-23.419-0.832l13 0L522.928 474.165l30.1-75.88c-0.224-0.114 7.759-19.623 15.96-49.166l0 0c8.207-29.32 15.966-67.62 15.852-98.102l0 0c0.114-19.067-3.211-34.09-6.983-41.408l0 0c-4.319-7.425-4.767-7.978-12.745-11.026l0 0c-18.791-5.49-32.592-7.317-40.794-7.317l0 0c-18.235 2.383-9.091 0.11-14.134 4.985l0 0c-3.882 6.208-7.874 28.325-7.426 55.595l0 0c-0.999 55.536-24.281 112.681-57.811 164.674l0 0c-34.699 49.387-77.986 99.546-150.874 102.98l0 0L173.021 519.5l0 310.777 587.634 0 5.042 1.223 0-0.114C766.088 831.611 767.248 831.721 768.856 831.721L768.856 831.721 768.856 831.721zM260.318 484.64l124.709 0 0 397.241L260.318 881.881 260.318 484.64 260.318 484.64z" p-id="6749" fill="#1296db"></path></svg>